#!OML:ASF H:\Terrain\Patient Classification 1\Walking\steve\steve.ASF
:FULLY-SPECIFIED
:DEGREES
76
root 6.88052 13.365 -17.9515 14.5134 7.7087 5.04604
lowerback 5.0689 -6.7932 -1.47775
upperback -3.55675 -8.94475 4.98248
thorax -5.51067 -4.28444 6.85181
lowerneck -12.7957 3.90657 5.73639
upperneck 5.97654 4.94775 -7.32834
head 4.19449 2.17026 -2.82033
rclavicle -1.19271e-015 -1.43125e-014
rhumerus -79.6121 -3.58829 -19.2717
rradius 19.5066
rwrist 8.34043
rhand -8.78405 -31.6777
rfingers 7.12502
rthumb 17.1543 -60.9404
lclavicle -1.19271e-015 -1.43125e-014
lhumerus 41.7566 -0.464127 56.2129
lradius 53.7801
lwrist 34.0099
lhand -21.7359 -12.7215
lfingers 7.12502
lthumb 4.66381 17.2072
rfemur -74.8812 -1.50683 16.0245
rtibia 62.0789
rfoot -9.07078 0.548075
rtoes -7.26199
lfemur 35.773 -3.95808 -25.6288
ltibia -1.27222e-014
lfoot 24.8646 10.8388
ltoes 7.90562
77
root 6.87701 13.3411 -17.6829 14.9538 7.76221 4.67389
lowerback 5.43907 -6.60088 -1.13203
upperback -3.68538 -8.63384 5.29335
thorax -5.89866 -4.12041 7.0392
lowerneck -12.7713 3.60524 5.74215
upperneck 5.4958 4.51675 -7.32376
head 4.01494 1.96323 -2.85621
rclavicle 2.14687e-014 -1.59028e-014
rhumerus -79.1832 -4.16449 -20.595
rradius 19.6615
rwrist 8.0294
rhand -8.89226 -31.2979
rfingers 7.12502
rthumb 17.0501 -60.5696
lclavicle 2.14687e-014 -1.59028e-014
lhumerus 41.3066 -0.687694 56.6077
lradius 54.3056
lwrist 33.4799
lhand -21.5075 -13.6361
lfingers 7.12502
lthumb 4.88432 16.2876
rfemur -75.6739 -1.64403 16.8895
rtibia 64.2261
rfoot -9.75751 0.783138
rtoes -6.62382
lfemur 35.7163 -3.87254 -25.1023
ltibia -2.8625e-014
lfoot 27.4623 12.8659
ltoes 9.43959
78
root 6.87603 13.3256 -17.4152 15.1709 7.72554 4.88359
lowerback 5.9573 -6.4235 -1.28522
upperback -3.72479 -8.39881 5.33656
thorax -6.23692 -3.98117 7.23112
lowerneck -12.6843 3.37381 5.62145
upperneck 5.10245 4.19254 -7.13497
head 3.85207 1.81591 -2.80538
rclavicle 1.69365e-013 -2.06736e-014
rhumerus -78.7641 -4.84865 -21.9036
rradius 19.1689
rwrist 9.12644
rhand -10.9066 -30.7367
rfingers 7.12502
rthumb 15.1104 -60.1651
lclavicle 1.69365e-013 -2.06736e-014
lhumerus 40.9568 -0.972587 57.1731
lradius 54.3806
lwrist 33.0441
lhand -21.5519 -14.4495
lfingers 7.12502
lthumb 4.84148 15.4751
rfemur -76.0258 -1.94936 17.1849
rtibia 66.1637
rfoot -9.96855 1.57142
rtoes -3.00393
lfemur 35.8006 -3.78546 -25.2549
ltibia 9.85972e-014
lfoot 29.5324 15.6565
ltoes 10.8935
79
root 6.88066 13.3171 -17.149 15.1363 7.66946 5.30348
lowerback 6.57756 -6.30287 -1.58017
upperback -3.58084 -8.26661 5.22967
thorax -6.42895 -3.89699 7.34336
lowerneck -12.6318 3.3524 5.76301
upperneck 4.76705 4.12873 -7.16578
head 3.74082 1.78952 -2.84412
rclavicle 7.31528e-014 0
rhumerus -77.9889 -5.91142 -23.3291
rradius 18.9976
rwrist 9.22067
rhand -11.9523 -30.505
rfingers 7.12502
rthumb 14.103 -60.0064
lclavicle 7.31528e-014 0
lhumerus 40.5994 -1.22654 57.5166
lradius 54.4175
lwrist 32.8961
lhand -21.7534 -14.7135
lfingers 7.12502
lthumb 4.64693 15.2156
rfemur -75.9498 -2.33454 17.3
rtibia 67.8815
rfoot -10.3807 2.28614
rtoes -1.44596
lfemur 36.0992 -3.68653 -25.6848
ltibia 6.99722e-014
lfoot 30.9581 18.8129
ltoes 11.6011
80
root 6.87883 13.3318 -16.8753 15.0409 7.66154 4.94878
lowerback 6.95523 -6.09658 -1.2189
upperback -3.35937 -7.9455 5.31829
thorax -6.48611 -3.7501 7.24166
lowerneck -12.2607 3.29502 5.33655
upperneck 4.13127 4.05455 -6.52489
head 3.45865 1.78853 -2.58895
rclavicle -3.02153e-014 -9.54166e-015
rhumerus -77.2341 -7.33391 -24.3304
rradius 18.9502
rwrist 9.17762
rhand -12.0857 -30.3251
rfingers 7.12502
rthumb 13.9744 -59.8354
lclavicle -3.02153e-014 -9.54166e-015
lhumerus 40.0679 -1.69284 58.0354
lradius 54.5848
lwrist 32.8247
lhand -21.8652 -14.447
lfingers 7.12502
lthumb 4.53893 15.4843
rfemur -75.5086 -2.32067 18.1223
rtibia 69.2799
rfoot -11.501 2.45278
rtoes -2.39811
lfemur 32.9442 -3.42501 -25.2998
ltibia 6.54096
lfoot 30.3628 18.6279
ltoes 7.1052
81
root 6.87385 13.3633 -16.6002 14.9703 7.82824 4.226
lowerback 7.30634 -5.87114 -0.487896
upperback -3.30705 -7.54067 5.59732
thorax -6.73897 -3.56407 7.14095
lowerneck -10.5609 3.06745 3.2312
upperneck 2.1943 3.88339 -4.06335
head 2.72371 1.82138 -1.67385
rclavicle -2.38542e-014 -7.95139e-015
rhumerus -76.5418 -8.6167 -25.0581
rradius 18.9144
rwrist 9.13758
rhand -11.9005 -30.2366
rfingers 7.12502
rthumb 14.1529 -59.7345
lclavicle -2.38542e-014 -7.95139e-015
lhumerus 39.0443 -2.46848 59.1187
lradius 54.6781
lwrist 32.7785
lhand -22.49 -14.4568
lfingers 7.12502
lthumb 3.93562 15.4866
rfemur -74.7521 -2.21651 19.239
rtibia 70.3582
rfoot -12.6548 2.65626
rtoes -1.05218
lfemur 29.1897 -3.24328 -24.4972
ltibia 13.7049
lfoot 29.6983 16.2706
ltoes -4.33541
82
root 6.87287 13.384 -16.341 14.9485 7.85523 3.97708
lowerback 8.00088 -5.70735 -0.165656
upperback -3.53725 -7.2455 5.77697
thorax -7.43803 -3.39723 7.24224
lowerneck -11.3123 2.96112 4.36274
upperneck 3.43631 3.7095 -5.69077
head 3.37562 1.6729 -2.44539
rclavicle 4.81059e-014 3.02153e-014
rhumerus -75.5596 -9.45769 -26.1285
rradius 19.0501
rwrist 8.71083
rhand -11.3787 -30.3453
rfingers 7.12502
rthumb 14.6556 -59.8074
lclavicle 4.81059e-014 3.02153e-014
lhumerus 37.1235 -3.30782 60.4316
lradius 54.769
lwrist 32.888
lhand -23.3067 -14.6277
lfingers 7.12502
lthumb 3.14692 15.3288
rfemur -74.1241 -2.22658 19.8422
rtibia 71.3617
rfoot -13.4687 3.17967
rtoes 1.77137
lfemur 26.5998 -3.0083 -24.2719
ltibia 18.6264
lfoot 27.7961 15.2376
ltoes -10.3643
83
root 6.87156 13.3904 -16.0962 14.9533 7.37944 4.18882
lowerback 9.09124 -5.39417 -0.479169
upperback -3.94692 -6.82022 5.79086
thorax -8.52609 -3.11937 7.56754
lowerneck -11.1725 2.88066 4.49015
upperneck 4.35741 3.68296 -6.54127
head 3.31601 1.6069 -2.49295
rclavicle -4.45278e-014 -7.4743e-014
rhumerus -74.5307 -10.2026 -27.187
rradius 19.0791
rwrist 8.88583
rhand -11.3257 -30.2788
rfingers 7.12502
rthumb 14.7067 -59.7372
lclavicle -4.45278e-014 -7.4743e-014
lhumerus 34.6807 -4.2848 61.6334
lradius 55.0839
lwrist 33.4842
lhand -23.805 -14.341
lfingers 7.12502
lthumb 2.66571 15.6221
rfemur -73.7332 -1.99878 19.8905
rtibia 72.4444
rfoot -14.4653 3.53944
rtoes 1.58425
lfemur 24.4436 -2.5901 -24.8438
ltibia 22.7597
lfoot 25.5671 14.6599
ltoes -9.09099
84
root 6.87633 13.4039 -15.8561 14.81 6.79084 4.61856
lowerback 10.6763 -4.96589 -1.32238
upperback -4.49192 -6.30613 5.92059
thorax -10.0171 -2.72992 8.37631
lowerneck -11.0291 2.75618 4.46089
upperneck 5.33587 3.64235 -7.37068
head 3.60505 1.53858 -2.74468
rclavicle 1.98785e-014 -4.29375e-014
rhumerus -73.4452 -10.51 -28.2983
rradius 19.0769
rwrist 8.97198
rhand -11.8528 -30.213
rfingers 7.12502
rthumb 14.1989 -59.7077
lclavicle 1.98785e-014 -4.29375e-014
lhumerus 31.8178 -5.37873 63.0726
lradius 55.6161
lwrist 34.4634
lhand -24.2741 -14.3956
lfingers 7.12502
lthumb 2.21265 15.5727
rfemur -73.092 -1.73578 19.532
rtibia 73.5814
rfoot -15.8816 4.13529
rtoes 0.812276
lfemur 22.4173 -2.27748 -25.8053
ltibia 26.5561
lfoot 23.7815 13.3897
ltoes -7.23964
85
root 6.88292 13.4321 -15.6246 14.7489 6.35254 4.60936
lowerback 9.53916 -4.80163 -0.41051
upperback -3.61336 -6.05075 5.28275
thorax -8.578 -2.76046 6.89024
lowerneck -9.96987 2.77494 2.82038
upperneck 3.39279 3.64164 -4.75892
head 3.0225 1.67076 -1.85366
rclavicle 1.74931e-014 3.49861e-014
rhumerus -71.954 -13.6562 -29.7721
rradius 18.8319
rwrist 10.1714
rhand -12.6527 -30.1801
rfingers 7.12502
rthumb 13.428 -59.7273
lclavicle 1.74931e-014 3.49861e-014
lhumerus 30.8026 -6.25756 62.8029
lradius 56.3015
lwrist 35.6851
lhand -25.0268 -13.9037
lfingers 7.12502
lthumb 1.48569 16.0708
rfemur -72.3161 -1.20461 19.4482
rtibia 74.5208
rfoot -17.3107 4.71328
rtoes 0.394921
lfemur 20.3656 -2.19361 -26.2328
ltibia 30.0484
lfoot 20.8514 12.6796
ltoes -3.85991
86
root 6.88518 13.4679 -15.3903 14.8561 6.00209 4.2301
lowerback 8.09269 -4.3674 -0.81378
upperback -2.73737 -5.53886 5.84466
thorax -6.762 -2.5578 7.41085
lowerneck -11.7167 2.6537 4.36102
upperneck 4.7391 3.50641 -7.87118
head 3.53719 1.43874 -2.88722
rclavicle -6.63941e-014 6.20208e-014
rhumerus -69.2546 -15.6929 -31.9081
rradius 18.97
rwrist 9.4561
rhand -13.5402 -30.6092
rfingers 7.12502
rthumb 12.5724 -60.2109
lclavicle -6.63941e-014 6.20208e-014
lhumerus 29.5937 -6.51551 64.7993
lradius 56.6242
lwrist 36.3859
lhand -25.5408 -13.1972
lfingers 7.12502
lthumb 0.989208 16.7803
rfemur -71.6 -0.618288 19.8923
rtibia 75.0885
rfoot -18.638 4.6955
rtoes -1.39016
lfemur 18.0843 -1.78202 -25.989
ltibia 33.228
lfoot 18.352 10.5338
ltoes -5.9901
87
root 6.89267 13.5153 -15.1344 14.6298 5.74104 4.19799
lowerback 9.08028 -4.3583 0.130478
upperback -3.31845 -5.39955 5.34635
thorax -8.10845 -2.48887 6.48169
lowerneck -11.9333 2.60442 4.85428
upperneck 6.40088 3.49061 -8.24417
head 4.09253 1.39376 -3.08335
rclavicle -8.78628e-014 7.95139e-014
rhumerus -67.7638 -14.8993 -36.2505
rradius 19.5199
rwrist 8.24177
rhand -14.0187 -31.2131
rfingers 7.12502
rthumb 12.1111 -60.8426
lclavicle -8.78628e-014 7.95139e-014
lhumerus 25.8381 -7.37733 65.899
lradius 56.7856
lwrist 36.8253
lhand -24.2204 -13.3199
lfingers 7.12502
lthumb 2.26454 16.6478
rfemur -70.3763 -0.564883 20.1345
rtibia 75.4663
rfoot -19.9373 4.93233
rtoes -1.96099
lfemur 16.1605 -1.23942 -26.0151
ltibia 36.19
lfoot 16.0569 7.64776
ltoes -10.5865
88
root 6.90269 13.5825 -14.8753 14.3716 5.47916 4.06747
lowerback 8.87401 -4.19867 0.438662
upperback -3.09996 -5.16508 5.27824
thorax -7.8103 -2.40249 6.16134
lowerneck -11.5872 2.63517 4.45008
upperneck 6.52293 3.5815 -7.90192
head 4.06482 1.45278 -2.90655
rclavicle -7.95139e-015 -6.36111e-015
rhumerus -65.4712 -15.6872 -38.7885
rradius 19.3991
rwrist 8.5378
rhand -14.8044 -31.5903
rfingers 7.12502
rthumb 11.3534 -61.263
lclavicle -7.95139e-015 -6.36111e-015
lhumerus 23.2321 -7.51634 67.6475
lradius 56.7171
lwrist 36.5829
lhand -22.3041 -13.0614
lfingers 7.12502
lthumb 4.11516 16.8786
rfemur -68.8871 -0.282172 20.3295
rtibia 75.607
rfoot -21.2854 4.77044
rtoes -3.2902
lfemur 14.3301 -1.10543 -26.1815
ltibia 39.0421
lfoot 12.9308 5.95299
ltoes -10.8602
